<?xml version="1.0" encoding="UTF-8"?>
<svg width="30px" height="30px" viewBox="0 0 30 30" version="1.1" xmlns="http://www.w3.org/2000/svg" xmlns:xlink="http://www.w3.org/1999/xlink">
    <title>opensea-logo</title>
    <g id="Page-1" stroke="none" stroke-width="1" fill="none" fill-rule="evenodd">
        <g id="48x48" transform="translate(-9, -9)" fill-rule="nonzero">
            <g id="opensea-logo" transform="translate(10, 10)">
                <path d="M14.1128942,0.000374198521 C6.30717169,-0.0561899461 -0.056189014,6.30727633 0.000374192313,14.1131283 C0.0569373986,21.7210057 6.27889009,27.9147796 13.8866413,27.9996258 C21.7206454,28.0561899 28.0840061,21.6927237 27.9991613,13.8868717 C27.9425981,6.27899425 21.7206454,0.0569383432 14.1128942,0.000374198521 Z" id="Path" stroke="#141413" fill="#E0D6FB"></path>
                <g id="paper-ship-svgrepo-com" transform="translate(4, 8)" fill="#313131">
                    <path d="M19.8923551,4.0006183 C19.780049,3.86794043 19.6024001,3.81246683 19.4357312,3.85804089 L13.7904119,5.40079849 L10.3726553,0.201552072 C10.372536,0.201370983 10.372357,0.201189894 10.3722376,0.201008805 C10.1953048,-0.0668821955 9.80473989,-0.0671236476 9.62768776,0.201008805 C9.62756841,0.201189894 9.62738939,0.201370983 9.62727004,0.201552072 L6.2095135,5.40085885 L0.564253803,3.85804089 C0.397525239,3.81228574 0.219876372,3.86794043 0.107629977,4.0006183 C-0.00467609232,4.13323582 -0.031529297,4.31939531 0.038587404,4.47899509 L3.02227681,11.269531 C3.09185645,11.4292515 3.25273698,11.5384481 3.431639,11.5384481 C3.43193736,11.5384481 3.43223573,11.5384481 3.43247443,11.5384481 C3.49656408,11.5384481 16.5151767,11.5385689 16.57312,11.5380859 C16.7483819,11.5362147 16.9063981,11.4314245 16.9777679,11.2695913 L19.9614573,4.47905545 C20.0315143,4.31939531 20.0046611,4.13323582 19.8923551,4.0006183 Z M10.4475459,1.95069077 L12.8791931,5.64985623 L10.4475459,6.31433215 L10.4475459,1.95069077 Z M9.55243911,1.95069077 L9.55243911,6.31439252 L7.12079192,5.64985623 L9.55243911,1.95069077 Z M1.23832891,4.98018909 L8.89632581,7.07303472 L3.63035271,10.4240868 L1.23832891,4.98018909 Z M4.98309781,10.6328824 L9.9998135,7.44046431 L15.0168276,10.6328824 L4.98309781,10.6328824 Z M16.369692,10.4240868 L11.1033609,7.07303472 L12.1229472,6.7943991 L18.7617158,4.98018909 L16.369692,10.4240868 Z" id="Shape"></path>
                </g>
            </g>
        </g>
    </g>
</svg>